<?xml version="1.0" standalone="no"?>
<!DOCTYPE svg PUBLIC "-//W3C//DTD SVG 20010904//EN"
 "http://www.w3.org/TR/2001/REC-SVG-20010904/DTD/svg10.dtd">
<svg version="1.0" xmlns="http://www.w3.org/2000/svg"
 width="2560.000000pt" height="1024.000000pt" viewBox="0 0 2560.000000 1024.000000"
 preserveAspectRatio="xMidYMid meet">

<g transform="translate(0.000000,1024.000000) scale(0.100000,-0.100000)"
fill="#000000" stroke="none">
<path d="M0 5120 l0 -5120 6795 0 c5428 0 6796 3 6800 12 108 327 169 484 210
539 40 54 62 121 35 104 -5 -3 -10 -3 -10 1 0 16 43 149 50 154 4 3 11 19 17
35 5 17 16 31 24 33 15 3 127 -66 145 -89 8 -10 2 -43 -24 -124 -19 -60 -42
-141 -52 -180 -10 -38 -32 -104 -48 -145 -17 -41 -40 -100 -51 -130 -12 -30
-26 -64 -31 -75 -6 -11 -19 -46 -29 -77 l-20 -58 110 0 110 0 16 37 c8 21 23
56 33 78 10 22 38 85 63 140 25 55 95 204 156 330 121 252 187 352 225 340 12
-3 30 -7 41 -8 38 -4 18 -64 -84 -257 -122 -229 -321 -635 -321 -656 0 -2 323
-4 718 -4 l717 0 35 51 c19 28 41 57 48 64 6 7 12 17 12 22 0 4 10 20 23 35
12 16 38 49 57 74 19 26 42 54 50 64 8 9 16 21 17 27 1 6 15 24 30 40 55 59
72 80 75 93 4 16 35 50 44 49 9 -1 24 23 24 39 0 7 -4 11 -8 8 -5 -3 -9 2 -9
10 0 10 4 11 11 4 16 -16 36 -12 29 7 -5 12 -2 15 8 11 10 -4 15 1 16 13 2 17
0 18 -23 3 -13 -9 -24 -14 -24 -10 0 3 19 18 43 33 23 15 44 30 47 33 3 3 23
17 45 32 23 16 63 50 90 76 28 27 68 64 90 82 l40 34 -34 -37 c-19 -20 -31
-37 -27 -37 5 0 61 51 125 113 113 109 301 275 331 292 19 11 -27 -51 -96
-130 -110 -127 -257 -280 -265 -278 -5 2 -8 0 -8 -5 4 -24 -3 -33 -21 -27 -12
4 -20 2 -20 -5 0 -6 5 -8 11 -5 6 4 5 -2 -3 -14 -7 -12 -18 -21 -25 -21 -7 0
-12 -6 -10 -13 1 -6 -6 -11 -15 -9 -13 2 -16 -2 -11 -14 4 -12 3 -15 -5 -10
-13 8 -42 -15 -42 -33 0 -6 -4 -11 -9 -11 -5 0 -33 -25 -63 -56 -29 -31 -59
-62 -65 -70 -7 -7 -13 -15 -13 -18 0 -3 -10 -16 -22 -29 -38 -38 -78 -86 -78
-92 0 -3 -15 -21 -32 -41 -35 -38 -146 -184 -215 -283 l-43 -61 98 0 c102 1
115 5 144 51 23 36 132 157 311 343 31 33 57 65 57 72 0 6 11 19 25 28 14 9
25 24 25 34 0 14 2 15 10 2 7 -12 11 -10 19 10 5 14 10 19 10 12 1 -9 15 -3
39 16 20 16 87 62 147 103 61 41 133 91 160 109 28 19 57 36 65 38 8 2 25 13
38 24 12 12 22 18 22 13 0 -5 -24 -30 -52 -57 -29 -27 -53 -54 -53 -59 0 -5
-3 -9 -7 -9 -7 -1 -114 -110 -170 -173 -18 -21 -55 -61 -83 -89 -27 -28 -49
-54 -48 -59 2 -5 -1 -9 -7 -9 -5 0 -24 -17 -42 -37 -18 -21 -49 -55 -69 -75
-20 -21 -35 -38 -33 -38 2 0 -8 -12 -21 -26 -14 -15 -25 -31 -25 -36 0 -5 -4
-6 -10 -3 -5 3 -10 2 -10 -4 0 -6 -10 -21 -22 -33 -54 -56 -128 -139 -128
-143 0 -3 2138 -5 4750 -5 l4750 0 0 30 0 30 -1468 0 c-1128 0 -1471 3 -1480
12 -8 8 -12 57 -12 153 0 96 4 145 12 153 9 9 352 12 1480 12 l1468 0 0 4925
0 4925 -4387 0 c-4301 0 -4387 0 -4358 -19 17 -10 57 -44 90 -75 33 -31 63
-56 66 -56 8 0 42 -32 54 -51 6 -9 27 -42 48 -73 20 -31 37 -60 37 -65 0 -4 8
-19 19 -32 10 -13 22 -35 26 -49 4 -14 19 -38 32 -54 28 -34 63 -100 108 -207
34 -80 38 -138 13 -186 -8 -17 -8 -26 2 -38 8 -10 9 -15 1 -15 -7 0 -10 -18
-8 -50 2 -39 -1 -51 -13 -55 -14 -4 -16 -17 -12 -73 9 -125 9 -247 0 -284 -12
-53 -68 -103 -164 -149 -44 -21 -87 -46 -95 -56 -22 -26 -40 -71 -30 -77 5 -3
11 -18 14 -33 6 -27 21 -50 78 -117 14 -17 33 -44 42 -61 9 -16 27 -43 41 -59
15 -16 31 -46 36 -67 6 -21 17 -45 25 -53 8 -8 15 -33 15 -55 0 -42 14 -64 62
-95 16 -10 77 -21 172 -31 127 -12 367 -44 373 -49 1 0 -110 -1 -245 -1 -193
0 -269 -4 -347 -19 -243 -43 -473 -108 -925 -260 -107 -36 -197 -66 -200 -66
-16 1 43 24 190 74 338 114 390 133 384 139 -3 3 5 3 18 0 16 -3 19 -2 10 5
-13 9 18 20 254 91 39 11 78 21 87 21 9 0 19 5 23 11 4 8 -1 9 -17 4 -21 -7
-21 -6 6 19 29 27 59 34 70 16 3 -6 16 -10 28 -11 21 0 21 -1 2 -10 -26 -12
62 0 90 12 15 7 12 8 -12 3 -38 -6 -110 5 -93 16 9 5 6 12 -9 22 -11 8 -24 29
-27 46 -4 18 -10 32 -14 32 -4 0 -10 9 -13 20 -3 11 -10 20 -16 20 -14 0 -14
-11 -1 -44 12 -33 -9 -79 -31 -65 -8 5 -28 9 -44 9 -24 0 -41 11 -78 51 -57
62 -59 74 -9 66 20 -4 32 -3 26 1 -15 10 11 72 31 72 23 0 18 30 -10 52 -28
22 -32 38 -11 38 11 0 12 8 4 40 -6 22 -14 40 -19 40 -5 0 -9 6 -9 13 0 6 -23
31 -50 55 -28 24 -50 39 -50 33 0 -23 23 -58 50 -76 15 -10 26 -24 23 -31 -3
-7 5 -21 16 -31 24 -20 28 -43 6 -43 -8 0 -15 -5 -15 -11 0 -14 -55 -69 -69
-69 -6 0 -11 -11 -11 -25 l0 -25 -39 28 c-30 20 -41 36 -46 65 -4 20 -11 35
-16 31 -5 -3 -9 1 -9 10 0 8 -11 28 -25 44 -14 17 -25 35 -25 41 0 6 -5 11
-11 11 -8 0 -10 18 -6 60 7 62 -4 85 -23 50 -7 -13 -21 -20 -39 -20 -15 0 -35
-8 -44 -18 -14 -15 -28 -18 -75 -14 -31 2 -74 13 -94 23 -49 25 -100 25 -123
-1 -16 -18 -16 -20 -2 -20 10 0 17 5 17 10 0 6 18 10 40 10 22 0 40 -4 40 -10
0 -5 10 -10 22 -10 21 0 21 0 2 -14 -14 -11 -21 -12 -26 -2 -8 15 -78 21 -78
6 0 -13 -77 -13 -85 0 -4 6 -9 8 -13 6 -4 -2 -8 38 -10 90 -2 78 0 95 13 100
8 3 15 17 15 30 0 47 -68 19 -85 -35 -3 -12 -15 -21 -25 -21 -10 0 -28 -12
-39 -26 -22 -28 -29 -17 -10 17 8 16 7 26 -6 45 -22 34 -33 124 -14 124 10 0
10 3 2 11 -9 9 -15 8 -26 -2 -11 -12 -13 -33 -7 -104 4 -50 6 -92 4 -94 -2 -2
1 -10 8 -18 6 -7 12 -26 13 -41 5 -70 8 -77 15 -32 l7 45 1 -42 c2 -42 3 -43
37 -43 39 0 42 -7 20 -36 -14 -19 -15 -19 -34 5 l-19 24 -3 -41 c-3 -23 0 -38
5 -35 5 4 6 -9 1 -33 -4 -21 -9 -58 -9 -81 -1 -22 -5 -39 -9 -36 -7 4 -5 -9
10 -72 3 -16 2 -17 -6 -5 -7 9 -11 10 -11 3 0 -6 5 -15 10 -18 6 -4 11 -18 11
-33 4 -111 7 -149 13 -163 4 -10 6 -23 5 -30 -1 -8 1 -30 4 -49 4 -19 9 -82
12 -140 3 -58 6 -116 7 -129 4 -34 -27 -52 -46 -26 -9 11 -16 15 -16 9 0 -12
-211 -59 -232 -52 -7 3 7 9 32 13 37 6 42 9 25 17 -16 6 -14 7 8 3 15 -3 27
-1 27 3 0 5 12 7 28 5 21 -4 24 -2 12 6 -13 9 -12 11 5 11 28 0 41 11 50 39 5
17 4 22 -5 16 -8 -5 -11 -3 -8 6 3 8 -1 31 -8 51 -7 20 -10 46 -7 57 3 12 -2
31 -10 44 -8 13 -18 45 -22 71 -4 26 -13 53 -21 60 -7 8 -15 26 -17 41 -2 14
-10 30 -18 35 -8 5 -15 24 -16 42 -2 41 -2 156 -1 183 4 60 -3 87 -22 92 -15
4 -20 14 -20 40 0 19 4 42 9 52 14 25 2 141 -14 135 -8 -4 -14 11 -17 46 -6
63 4 116 22 112 9 -2 11 4 6 20 -3 13 -6 31 -6 41 0 10 -8 17 -20 17 -21 0
-21 1 -25 195 -1 33 -5 76 -10 95 -5 19 -10 49 -12 65 -1 17 -5 51 -9 78 -6
44 -4 47 16 47 16 0 20 4 16 16 -3 8 0 27 8 42 15 31 11 52 -10 52 -11 0 -14
17 -14 74 0 69 2 76 28 98 28 24 54 57 35 45 -6 -4 -15 5 -21 18 -7 14 -16 25
-22 25 -14 0 -12 84 2 98 10 10 10 14 0 21 -8 5 -12 28 -11 62 1 63 -9 127
-22 135 -5 3 -9 16 -9 30 0 13 -4 24 -9 24 -13 0 -34 86 -27 114 4 15 1 26 -6
28 -7 3 -9 11 -4 24 8 19 8 19 16 -1 7 -16 9 -12 9 18 1 31 -2 37 -19 37 -19
0 -27 -27 -22 -80 1 -8 -1 -28 -5 -45 -6 -30 -6 -30 -14 -6 -7 18 -14 22 -34
17 -27 -7 -45 15 -45 56 0 13 -7 31 -14 41 -13 16 -396 17 -7800 17 l-7786 0
0 -5120z m17943 2823 c-7 -2 -21 -2 -30 0 -10 3 -4 5 12 5 17 0 24 -2 18 -5z
m-2896 -45 c-3 -8 -6 -5 -6 6 -1 11 2 17 5 13 3 -3 4 -12 1 -19z m-1651 -43
c-4 -14 -11 -25 -16 -25 -5 0 -5 13 2 31 12 35 23 31 14 -6z m1673 -25 c0 -9
-4 -8 -9 5 -5 11 -9 27 -9 35 0 9 4 8 9 -5 5 -11 9 -27 9 -35z m8 -57 c-3 -10
-5 -4 -5 12 0 17 2 24 5 18 2 -7 2 -21 0 -30z m-390 -109 c-3 -3 -12 -4 -19
-1 -8 3 -5 6 6 6 11 1 17 -2 13 -5z m80 -20 c-3 -3 -12 -4 -19 -1 -8 3 -5 6 6
6 11 1 17 -2 13 -5z m340 -36 c-3 -8 -6 -5 -6 6 -1 11 2 17 5 13 3 -3 4 -12 1
-19z m2480 -50 c-3 -8 -6 -5 -6 6 -1 11 2 17 5 13 3 -3 4 -12 1 -19z m-2530 6
c-3 -3 -12 -4 -19 -1 -8 3 -5 6 6 6 11 1 17 -2 13 -5z m746 -31 c-7 -2 -19 -2
-25 0 -7 3 -2 5 12 5 14 0 19 -2 13 -5z m-66 -9 c-3 -3 -12 -4 -19 -1 -8 3 -5
6 6 6 11 1 17 -2 13 -5z m1269 -25 c32 -6 66 -15 74 -21 11 -7 9 -8 -10 -4
-152 36 -380 28 -562 -18 -200 -51 -477 -185 -592 -287 -30 -27 -59 -49 -64
-49 -14 0 -20 -25 -20 -88 0 -42 -4 -58 -21 -73 -14 -13 -21 -32 -21 -55 0
-64 -11 -72 -77 -62 -67 10 -80 20 -88 67 -3 19 -8 38 -11 42 -7 12 54 21 123
17 47 -2 67 1 70 10 4 10 -24 11 -134 5 -189 -10 -207 -9 -213 2 -6 12 87 23
121 14 13 -3 32 -2 42 3 10 5 50 12 90 15 83 7 107 16 107 43 0 22 -12 26
-113 35 -87 8 -101 21 -92 89 13 96 73 150 162 145 33 -2 48 1 58 14 28 38 63
8 85 -71 6 -25 17 -42 26 -42 8 0 67 28 132 63 231 125 352 172 517 201 97 17
329 20 411 5z m-1876 -193 c100 -34 178 -66 172 -70 -6 -4 -53 10 -104 30 -51
20 -133 52 -183 70 -156 57 -77 37 115 -30z m1365 -144 c19 -11 19 -11 -2 -12
-13 0 -23 -5 -23 -11 0 -5 3 -8 8 -6 4 3 5 -16 3 -41 -3 -39 -10 -54 -42 -85
-22 -21 -39 -47 -39 -57 0 -16 -15 -33 -98 -111 -52 -48 -152 -85 -190 -70
-15 5 -38 11 -52 13 -15 2 -30 14 -40 33 -8 17 -17 32 -21 35 -3 3 -13 37 -22
76 -19 79 -12 124 24 156 11 9 19 21 19 28 0 6 27 23 59 39 58 27 63 28 227
26 110 0 176 -5 189 -13z m272 -96 c-6 -19 -22 -16 -33 8 -11 23 -10 24 13 13
13 -6 22 -15 20 -21z m-34 -108 c-3 -35 -9 -68 -14 -74 -4 -5 -5 -21 -2 -34 4
-16 3 -21 -5 -16 -7 4 -12 15 -12 24 0 19 32 162 37 162 1 0 0 -28 -4 -62z
m-915 -224 c-9 -8 -78 10 -78 21 0 6 17 16 38 21 34 8 37 7 40 -14 2 -13 2
-26 0 -28z m-254 11 c-22 -16 -60 -20 -69 -6 -6 11 16 18 59 20 28 1 29 0 10
-14z m1117 -28 c-10 -9 -11 -8 -5 6 3 10 9 15 12 12 3 -3 0 -11 -7 -18z m-900
-3 c5 -3 9 -21 9 -40 l0 -35 -62 6 c-85 9 -88 10 -88 44 0 23 5 31 23 34 25 6
104 0 118 -9z m-1531 -104 c0 -21 -24 -28 -35 -10 -8 14 3 30 21 30 8 0 14 -9
14 -20z m1570 -36 c0 -24 -2 -25 -32 -19 -60 13 -65 22 -17 33 24 5 45 10 47
11 1 1 2 -11 2 -25z m-230 -14 c-36 -11 -52 -11 -45 0 3 6 21 10 38 9 31 -1
31 -1 7 -9z m200 -29 c0 -5 3 -23 7 -41 l6 -33 -49 7 c-27 4 -59 10 -71 13
-24 5 -38 43 -20 55 17 11 127 10 127 -1z m-27 -118 c-7 -2 -19 -2 -25 0 -7 3
-2 5 12 5 14 0 19 -2 13 -5z m6 -188 c7 -60 15 -128 17 -150 4 -27 2 -35 -4
-25 -5 8 -13 56 -18 105 -6 71 -9 84 -15 60 -5 -20 -6 -12 -3 23 4 34 2 52 -5
52 -6 0 -11 5 -11 11 0 5 5 7 10 4 13 -8 13 -3 -1 32 -9 24 -8 26 4 13 8 -9
19 -60 26 -125z m1868 64 c13 -15 20 -29 15 -33 -14 -8 -42 16 -47 42 -2 12
-7 27 -10 32 -3 6 -3 16 2 23 5 8 9 4 11 -13 2 -14 15 -37 29 -51z m-1470
-145 c-3 -3 -12 -4 -19 -1 -8 3 -5 6 6 6 11 1 17 -2 13 -5z m-410 -26 c-3 -8
-6 -5 -6 6 -1 11 2 17 5 13 3 -3 4 -12 1 -19z m473 12 c20 -6 21 -8 5 -8 -11
0 -29 3 -40 8 -25 11 1 11 35 0z m420 -25 c140 0 293 3 340 6 53 4 72 4 50 -2
-129 -30 -559 -40 -745 -16 -16 2 -39 5 -50 6 l-20 2 20 9 c11 5 49 6 85 2 36
-4 180 -7 320 -7z m-449 -60 c16 -9 34 -13 39 -10 6 3 7 -1 4 -10 -5 -13 -11
-12 -43 7 -44 26 -46 28 -37 28 4 0 20 -7 37 -15z m109 0 c12 7 12 -2 1 -30
-7 -16 -1 -24 31 -42 38 -22 58 -23 58 -3 0 5 -7 7 -15 4 -8 -4 -15 -1 -15 5
0 6 -9 11 -19 11 -20 0 -35 25 -25 42 3 5 18 7 33 3 51 -13 180 -31 457 -62
120 -13 151 -20 147 -30 -4 -11 1 -12 21 -7 17 4 26 2 26 -6 0 -7 8 -10 18 -8
15 4 17 0 14 -23 -2 -16 -9 -29 -15 -29 -13 0 -47 -30 -47 -42 0 -4 8 -9 18
-9 9 -1 4 -5 -13 -9 -23 -6 -25 -8 -8 -9 28 -1 54 9 48 19 -3 4 9 10 25 14 17
3 41 16 53 29 20 22 58 47 70 47 16 0 -11 -45 -41 -70 -65 -53 -133 -64 -359
-54 l-198 9 135 5 c109 4 135 8 135 20 0 25 -109 51 -211 51 -51 0 -96 -1
-100 -2 -5 -1 -18 0 -29 1 -14 1 -9 5 15 12 19 6 29 13 22 15 -6 3 -10 8 -7
13 3 5 -9 12 -27 15 -18 4 -45 14 -59 23 -16 9 -34 12 -45 8 -18 -7 -18 -8 1
-22 11 -8 28 -21 38 -29 9 -8 23 -15 30 -16 9 0 9 -2 -1 -6 -10 -4 -9 -8 5
-19 11 -8 13 -13 5 -14 -7 0 -39 22 -72 49 -32 27 -82 62 -109 78 -28 15 -51
31 -51 36 0 10 18 9 25 -3 11 -18 23 -11 18 10 -3 11 -9 20 -14 20 -5 0 -9 5
-9 11 0 8 4 8 15 -1 8 -6 19 -9 25 -5z m835 -85 c8 -13 -5 -13 -25 0 -13 8
-13 10 2 10 9 0 20 -4 23 -10z m-1260 -221 c68 -19 192 -115 221 -172 11 -21
-1 -12 -44 32 -74 76 -162 120 -242 122 -31 1 -44 4 -30 7 l25 5 -25 8 c-43
12 49 11 95 -2z m-1591 -103 l27 -14 -32 -11 c-72 -25 -118 -4 -58 26 30 16
31 16 63 -1z m2586 -45 c239 -29 426 -42 551 -40 76 2 141 1 143 -2 3 -3 -29
-117 -70 -254 -42 -138 -93 -308 -115 -380 -21 -71 -53 -187 -70 -257 l-31
-126 -37 36 c-28 28 -34 40 -26 51 7 11 7 13 -3 7 -8 -5 -28 6 -55 31 -37 34
-128 106 -376 297 -130 100 -190 153 -183 161 4 5 -1 5 -11 2 -10 -4 -16 -3
-13 2 3 5 0 14 -8 20 -8 7 -16 8 -18 4 -3 -4 -3 -2 -2 5 2 7 -5 21 -16 32 -16
16 -21 39 -26 103 -3 45 -9 86 -14 91 -5 5 -5 19 0 32 10 26 4 54 -12 54 -6 0
-5 6 2 15 7 8 10 21 7 30 -4 8 -2 17 2 20 16 9 0 42 -25 54 -13 6 -24 16 -24
22 0 14 287 7 430 -10z m-1870 -91 c0 -5 -6 -10 -14 -10 -8 0 -18 5 -21 10 -3
6 3 10 14 10 12 0 21 -4 21 -10z m1147 -112 c-3 -7 -5 -2 -5 12 0 14 2 19 5
13 2 -7 2 -19 0 -25z m-882 -88 c-3 -5 -12 -10 -18 -10 -7 0 -6 4 3 10 19 12
23 12 15 0z m195 -80 c-7 -85 -7 -85 -8 -20 -2 56 6 117 13 108 1 -2 -1 -41
-5 -88z m917 -314 c245 -360 519 -718 701 -914 56 -61 102 -115 102 -119 -1
-14 -199 200 -275 297 -296 377 -606 812 -685 962 -27 51 -50 98 -50 103 0 6
21 -28 45 -74 25 -45 98 -160 162 -255z m-760 42 c-3 -8 -6 -5 -6 6 -1 11 2
17 5 13 3 -3 4 -12 1 -19z m-52 -8 c-16 -4 -41 -8 -55 -8 -22 0 -22 1 5 8 17
4 41 8 55 8 22 0 22 -1 -5 -8z m-85 -10 c0 -5 -8 -10 -17 -10 -15 0 -16 2 -3
10 19 12 20 12 20 0z m154 -240 c3 -52 18 -203 32 -335 14 -132 29 -286 33
-343 5 -56 14 -109 21 -117 10 -12 9 -15 -4 -15 -10 0 -14 4 -11 10 3 5 0 7
-8 4 -19 -7 -43 21 -26 32 7 4 9 3 6 -3 -3 -5 0 -10 8 -10 13 0 13 3 2 16 -18
22 -37 68 -37 91 0 13 -7 20 -20 20 -11 0 -20 5 -20 10 0 6 7 10 16 10 11 0
14 6 9 20 -4 11 -2 20 4 20 6 0 11 9 11 20 0 11 -4 20 -10 20 -5 0 -10 -4 -10
-10 0 -5 -4 -10 -10 -10 -6 0 -6 10 1 27 11 29 14 151 5 161 -11 10 -46 9 -46
-2 0 -6 -5 -3 -11 7 -8 14 -8 22 0 30 7 7 12 6 17 -6 9 -24 24 -21 25 6 1 21
1 21 9 -3 7 -21 8 -19 9 17 1 23 -4 45 -9 48 -6 3 -8 18 -4 33 4 23 4 24 -6 9
-7 -10 -9 -25 -6 -34 5 -12 4 -13 -7 -5 -11 9 -17 4 -30 -24 -18 -38 -42 -39
-28 -1 9 24 4 47 -10 47 -5 0 -9 -14 -9 -32 0 -61 -8 -22 -15 72 -3 52 -10
133 -16 180 -15 145 -13 162 22 183 17 9 35 15 40 12 5 -3 17 -1 28 4 14 8 21
8 24 -2 3 -6 6 -3 7 8 4 32 17 -61 24 -165z m1230 -90 c32 -36 89 -96 126
-135 69 -72 215 -263 208 -271 -6 -5 -35 27 -98 111 -28 39 -85 106 -124 150
-233 258 -334 376 -255 295 46 -47 111 -114 143 -150z m-927 163 c-3 -10 -5
-4 -5 12 0 17 2 24 5 18 2 -7 2 -21 0 -30z m20 -65 c-3 -8 -6 -5 -6 6 -1 11 2
17 5 13 3 -3 4 -12 1 -19z m-745 -79 c-10 -19 -47 -85 -82 -147 -55 -99 -80
-135 -80 -118 0 3 33 63 73 133 40 71 79 141 87 156 8 16 16 24 18 19 1 -5 -6
-25 -16 -43z m538 15 c0 -8 -5 -12 -10 -9 -6 4 -8 11 -5 16 9 14 15 11 15 -7z
m217 -26 c-3 -7 -5 -2 -5 12 0 14 2 19 5 13 2 -7 2 -19 0 -25z m-727 2 c0 -5
-5 -10 -11 -10 -5 0 -7 5 -4 10 3 6 8 10 11 10 2 0 4 -4 4 -10z m433 -23 c3
-8 2 -20 -3 -26 -5 -9 -7 -4 -7 13 0 29 2 32 10 13z m-404 -467 c24 -201 34
-245 59 -260 9 -5 13 -9 7 -10 -5 0 -16 4 -24 9 -10 7 -19 4 -29 -7 -7 -9 -11
-11 -7 -4 12 23 -5 52 -30 52 -14 0 -29 8 -35 19 -14 28 -13 38 3 17 12 -16
14 -16 26 10 11 25 11 26 -4 14 -14 -12 -15 -10 -5 14 7 20 7 25 -2 20 -8 -5
-9 -2 -4 12 19 46 18 51 -13 62 -25 9 -31 8 -31 -4 0 -7 -3 -13 -7 -13 -19 3
-21 -3 -13 -30 4 -15 4 -34 0 -41 -5 -8 -11 9 -15 41 -10 75 -25 108 -20 44 4
-49 4 -49 -5 -10 -5 22 -11 82 -15 134 -3 52 -8 98 -12 103 -7 12 51 66 84 79
32 12 46 52 44 132 -3 133 14 90 20 -53 4 -80 16 -228 28 -330z m711 450 c1
23 2 23 10 5 5 -12 9 -14 9 -6 1 8 4 11 8 7 4 -4 8 -38 8 -77 l1 -70 -19 33
c-18 33 -18 33 -14 5 2 -15 1 -30 -3 -32 -10 -6 -20 58 -19 115 1 37 2 41 9
20 l8 -25 2 25z m2163 -57 c7 -36 -6 -59 -37 -65 -20 -4 -27 1 -37 23 -6 16
-9 40 -5 53 11 46 70 38 79 -11z m-2417 25 c4 -7 4 -10 -1 -6 -11 11 -36 -12
-28 -25 3 -5 1 -7 -5 -3 -5 3 -13 0 -15 -6 -3 -7 -6 -8 -6 -2 -1 10 35 54 44
54 2 0 7 -6 11 -12z m347 -30 c3 -18 9 -64 12 -103 4 -38 8 -81 11 -94 2 -14
6 -99 10 -190 6 -160 19 -229 44 -232 6 -1 15 -2 22 -3 6 0 13 -8 15 -16 4
-13 3 -13 -6 0 -8 12 -10 11 -9 -6 1 -11 8 -21 15 -21 6 0 10 4 7 9 -3 4 2 8
11 8 9 0 14 -4 11 -8 -3 -5 1 -9 9 -9 8 0 12 5 8 10 -3 5 3 7 13 3 11 -3 26
-1 34 4 11 7 4 9 -22 7 -21 -2 -43 0 -50 5 -7 4 23 8 67 8 87 0 127 -13 87
-27 -22 -8 -21 -9 10 -26 18 -10 25 -12 16 -4 -15 12 -11 13 32 11 56 -4 70 8
43 38 -18 21 -18 21 4 9 12 -6 25 -16 28 -21 3 -6 11 -10 16 -10 6 0 7 5 3 12
-4 7 -8 76 -8 155 -1 78 2 134 6 125 6 -15 7 -14 8 3 1 19 1 19 12 1 6 -10 12
-68 14 -129 2 -86 6 -114 18 -123 9 -6 14 -13 11 -16 -6 -5 128 9 158 17 20 6
21 5 5 -8 -10 -8 -18 -19 -18 -25 0 -8 -8 -9 -26 -2 -14 6 -35 10 -47 9 -12 0
0 -7 28 -16 34 -10 50 -12 53 -4 2 6 8 11 13 11 4 0 6 -6 3 -13 -3 -9 10 -16
42 -23 26 -5 49 -15 50 -22 1 -7 0 -8 -3 -2 -6 12 -33 13 -33 1 0 -4 -11 -6
-25 -3 -15 2 -25 0 -25 -7 0 -7 -31 -11 -92 -11 -51 0 -165 -5 -253 -10 -180
-11 -389 -16 -1000 -27 -581 -11 -705 -7 -705 20 0 7 21 41 46 77 68 98 94
139 94 150 0 5 5 10 10 10 6 0 10 -30 10 -69 0 -43 5 -72 13 -78 6 -6 46 -13
87 -16 49 -4 70 -3 60 3 -12 8 -9 10 12 10 17 0 27 -5 25 -12 -1 -7 8 -14 21
-16 16 -2 25 3 31 20 7 16 10 18 10 6 1 -9 6 -20 12 -24 8 -4 9 1 4 17 -4 13
-12 26 -16 27 -19 8 -8 24 13 19 12 -4 28 -1 35 5 10 8 13 7 13 -5 0 -8 -9
-17 -20 -20 -11 -3 -20 -10 -20 -16 0 -14 17 -14 25 -1 3 6 11 10 16 10 6 0 7
-4 4 -10 -4 -6 1 -7 11 -3 11 4 13 8 6 11 -25 8 -12 32 18 32 32 0 41 -17 14
-27 -13 -5 -13 -7 -2 -14 10 -7 9 -9 -5 -9 -16 0 -16 -2 -2 -30 8 -16 15 -36
15 -45 0 -12 13 -15 68 -15 37 0 61 4 54 8 -7 5 16 7 50 5 46 -2 56 0 38 6
-22 8 -20 9 18 10 27 1 42 -3 42 -11 0 -10 2 -10 9 0 5 9 44 15 115 19 77 4
109 10 113 20 6 15 49 18 58 3 9 -15 25 -12 25 5 0 10 10 15 29 15 17 0 33 5
36 10 3 6 18 10 33 9 l27 -1 -25 -8 c-24 -8 -23 -8 7 -9 25 -1 31 2 27 14 -4
8 -1 15 5 15 6 0 11 5 11 11 0 9 -4 9 -14 0 -7 -6 -32 -12 -54 -13 -23 -1 -39
-5 -36 -10 3 -4 -7 -8 -23 -7 -25 0 -26 1 -8 9 18 8 17 9 -7 9 -15 1 -29 5
-32 9 -3 5 16 6 42 2 67 -8 104 1 118 29 l12 24 4 -24 c3 -21 8 -24 41 -23 45
2 59 12 33 26 -13 7 -15 13 -7 18 9 5 8 10 -4 20 -12 10 -15 10 -15 -4 0 -9
-3 -16 -7 -16 -5 0 -8 20 -9 45 -1 33 -7 50 -22 64 -12 10 -18 21 -14 25 4 4
7 11 8 14 0 4 3 14 7 22 13 35 17 70 7 70 -5 0 -10 -8 -11 -17 0 -15 -2 -15
-8 2 -5 11 -5 22 0 25 4 3 6 20 5 38 -1 17 1 32 6 32 4 0 8 17 8 38 1 20 8 55
16 77 9 22 17 57 19 77 1 20 6 41 10 48 4 6 1 18 -6 26 -10 13 -10 17 2 25 22
14 26 11 32 -23z m-310 9 c3 -7 -3 -13 -14 -13 -13 0 -15 3 -7 13 6 7 12 13
13 13 2 0 5 -6 8 -13z m-438 -27 c3 -5 1 -10 -4 -10 -6 0 -11 5 -11 10 0 6 2
10 4 10 3 0 8 -4 11 -10z m415 -15 c0 -2 -9 -3 -19 -2 -11 0 -18 5 -15 9 4 6
34 0 34 -7z m-30 -34 c3 -2 -3 -1 -12 2 -9 3 -19 1 -21 -6 -3 -7 -4 -2 -4 10
1 21 7 20 37 -6z m55 9 c4 -6 -1 -7 -11 -3 -13 5 -15 3 -9 -7 5 -9 4 -11 -4
-6 -6 4 -9 12 -6 17 8 12 22 12 30 -1z m-31 -28 c2 -4 -5 -9 -17 -9 -17 -2
-19 0 -7 7 18 12 18 12 24 2z m36 -12 c-13 -9 -13 -11 0 -20 12 -7 10 -9 -7
-7 -17 1 -20 5 -12 19 5 10 15 18 22 18 8 0 6 -4 -3 -10z m45 0 c3 -6 -1 -7
-9 -4 -18 7 -21 14 -7 14 6 0 13 -4 16 -10z m-228 -32 c-3 -8 -6 -5 -6 6 -1
11 2 17 5 13 3 -3 4 -12 1 -19z m119 10 c4 -7 3 -8 -4 -4 -7 4 -12 2 -12 -5 0
-7 -3 -10 -6 -6 -6 5 3 27 11 27 2 0 7 -5 11 -12z m39 -27 c3 -6 -3 -9 -14 -8
-11 0 -17 5 -15 9 7 11 22 10 29 -1z m-435 -41 c0 -5 -5 -10 -11 -10 -5 0 -7
5 -4 10 3 6 8 10 11 10 2 0 4 -4 4 -10z m674 -5 c3 -8 1 -15 -4 -15 -6 0 -10
7 -10 15 0 8 2 15 4 15 2 0 6 -7 10 -15z m-457 -17 c-3 -8 -6 -5 -6 6 -1 11 2
17 5 13 3 -3 4 -12 1 -19z m244 -17 c-30 -30 -39 -26 -11 4 13 14 25 23 28 21
2 -2 -6 -14 -17 -25z m-450 -10 c-30 -30 -39 -26 -11 4 13 14 25 23 28 21 2
-2 -6 -14 -17 -25z m379 -11 c0 -5 -2 -10 -4 -10 -3 0 -8 5 -11 10 -3 6 -1 10
4 10 6 0 11 -4 11 -10z m285 0 c3 -5 1 -10 -4 -10 -6 0 -11 5 -11 10 0 6 2 10
4 10 3 0 8 -4 11 -10z m-192 -15 c-3 -9 -8 -14 -10 -11 -3 3 -2 9 2 15 9 16
15 13 8 -4z m1572 -5 c-62 -25 -70 -25 -25 0 19 11 44 19 55 19 11 0 -2 -9
-30 -19z m-2022 -5 c-3 -9 -8 -14 -10 -11 -3 3 -2 9 2 15 9 16 15 13 8 -4z
m279 -9 c-5 -19 -6 -19 -13 0 -4 11 -8 13 -8 5 -1 -8 -4 -12 -7 -8 -9 9 3 24
19 24 9 0 12 -7 9 -21z m122 16 c3 -5 -1 -9 -9 -9 -8 0 -15 4 -15 9 0 4 4 8 9
8 6 0 12 -4 15 -8z m-431 -37 c-3 -9 -8 -14 -10 -11 -3 3 -2 9 2 15 9 16 15
13 8 -4z m294 -37 c-3 -8 -6 -5 -6 6 -1 11 2 17 5 13 3 -3 4 -12 1 -19z m548
12 c3 -5 2 -10 -4 -10 -5 0 -13 5 -16 10 -3 6 -2 10 4 10 5 0 13 -4 16 -10z
m-767 -29 c-7 -11 -16 -17 -21 -14 -4 3 0 11 10 19 24 18 25 17 11 -5z m-43
-11 c3 -5 1 -10 -4 -10 -6 0 -11 5 -11 10 0 6 2 10 4 10 3 0 8 -4 11 -10z
m819 -18 c2 -4 0 -14 -6 -22 -8 -12 -9 -12 -5 2 3 9 1 19 -6 22 -9 3 -9 5 0 5
6 1 14 -3 17 -7z m-854 -12 c0 -5 -5 -10 -11 -10 -5 0 -7 5 -4 10 3 6 8 10 11
10 2 0 4 -4 4 -10z m257 -42 c-3 -7 -5 -2 -5 12 0 14 2 19 5 13 2 -7 2 -19 0
-25z m-217 18 c0 -3 -4 -8 -10 -11 -5 -3 -10 -1 -10 4 0 6 5 11 10 11 6 0 10
-2 10 -4z m408 -19 c16 -17 18 -26 11 -37 -10 -13 -10 -13 -6 0 5 16 -18 45
-26 32 -2 -4 -2 -2 -1 5 2 6 -5 14 -14 16 -14 4 -14 5 -1 6 8 0 25 -9 37 -22z
m-438 -17 c0 -5 -5 -10 -11 -10 -5 0 -7 5 -4 10 3 6 8 10 11 10 2 0 4 -4 4
-10z m910 -10 c0 -5 -2 -10 -4 -10 -3 0 -8 5 -11 10 -3 6 -1 10 4 10 6 0 11
-4 11 -10z m-880 -14 c0 -3 -4 -8 -10 -11 -5 -3 -10 -1 -10 4 0 6 5 11 10 11
6 0 10 -2 10 -4z m394 -4 c2 -4 0 -14 -6 -22 -8 -12 -9 -12 -5 2 3 9 1 19 -6
22 -9 3 -9 5 0 5 6 1 14 -3 17 -7z m486 -12 c0 -5 -2 -10 -4 -10 -3 0 -8 5
-11 10 -3 6 -1 10 4 10 6 0 11 -4 11 -10z m-910 -20 c0 -5 -2 -10 -4 -10 -3 0
-8 5 -11 10 -3 6 -1 10 4 10 6 0 11 -4 11 -10z m880 -10 c0 -5 -4 -10 -10 -10
-5 0 -10 5 -10 10 0 6 5 10 10 10 6 0 10 -4 10 -10z m-1007 -15 c-3 -9 -8 -14
-10 -11 -3 3 -2 9 2 15 9 16 15 13 8 -4z m557 -5 c0 -5 -2 -10 -4 -10 -3 0 -8
5 -11 10 -3 6 -1 10 4 10 6 0 11 -4 11 -10z m415 -10 c3 -5 1 -10 -4 -10 -6 0
-11 5 -11 10 0 6 2 10 4 10 3 0 8 -4 11 -10z m-355 -10 c0 -5 -5 -10 -11 -10
-5 0 -7 5 -4 10 3 6 8 10 11 10 2 0 4 -4 4 -10z m-30 -10 c0 -5 -7 -7 -15 -4
-8 4 -15 8 -15 10 0 2 7 4 15 4 8 0 15 -4 15 -10z m67 4 c-3 -3 -12 -4 -19 -1
-8 3 -5 6 6 6 11 1 17 -2 13 -5z m333 -14 c0 -5 -2 -10 -4 -10 -3 0 -8 5 -11
10 -3 6 -1 10 4 10 6 0 11 -4 11 -10z m24 -6 c3 -8 2 -12 -4 -9 -6 3 -10 10
-10 16 0 14 7 11 14 -7z m-1052 -16 c-7 -7 -12 -8 -12 -2 0 14 12 26 19 19 2
-3 -1 -11 -7 -17z m208 8 c0 -3 -4 -8 -10 -11 -5 -3 -10 -1 -10 4 0 6 5 11 10
11 6 0 10 -2 10 -4z m457 -2 c-3 -3 -12 -4 -19 -1 -8 3 -5 6 6 6 11 1 17 -2
13 -5z m2056 -1 c-7 -2 -19 -2 -25 0 -7 3 -2 5 12 5 14 0 19 -2 13 -5z m267
-8 c22 -26 30 -94 13 -111 -38 -38 -73 -2 -73 76 0 37 4 42 41 49 4 0 12 -6
19 -14z m-2395 -25 c-3 -5 -2 -10 4 -10 5 0 13 5 16 10 3 6 11 10 17 10 5 0 0
-9 -13 -19 -17 -14 -26 -16 -31 -8 -6 9 -8 9 -8 -1 0 -7 -11 -11 -29 -10 -16
1 -28 5 -25 9 2 4 14 5 27 2 16 -4 19 -2 8 5 -11 8 -9 11 10 15 13 2 25 5 27
6 2 0 0 -3 -3 -9z m-302 -27 c-7 -2 -21 -2 -30 0 -10 3 -4 5 12 5 17 0 24 -2
18 -5z m44 1 c-3 -3 -12 -4 -19 -1 -8 3 -5 6 6 6 11 1 17 -2 13 -5z m310 0
c-3 -3 -12 -4 -19 -1 -8 3 -5 6 6 6 11 1 17 -2 13 -5z m-304 -21 c-13 -2 -35
-2 -50 0 -16 2 -5 4 22 4 28 0 40 -2 28 -4z m1804 -35 c-3 -8 -6 -5 -6 6 -1
11 2 17 5 13 3 -3 4 -12 1 -19z m20 0 c-3 -8 -6 -5 -6 6 -1 11 2 17 5 13 3 -3
4 -12 1 -19z m84 11 c11 -5 17 -14 14 -20 -4 -5 -1 -8 6 -7 14 4 59 -58 59
-81 -1 -9 -9 0 -20 19 -11 19 -19 31 -20 27 0 -4 -9 1 -21 12 -11 10 -36 22
-55 26 -41 7 -47 35 -8 35 14 0 34 -5 45 -11z m-121 -13 c0 -14 -29 -31 -38
-21 -6 6 18 35 29 35 5 0 9 -6 9 -14z m115 -37 c-5 -6 -55 0 -55 7 0 3 13 3
29 2 16 -1 28 -5 26 -9z m-2916 -27 c14 -2 37 -13 49 -26 20 -19 21 -24 8 -29
-11 -4 -13 -1 -9 10 5 12 1 14 -18 8 -17 -4 -20 -3 -10 3 11 8 9 11 -8 17 -13
4 -25 4 -28 1 -4 -3 1 -6 11 -6 10 0 14 -5 11 -11 -4 -6 0 -16 9 -22 14 -10
11 -12 -16 -14 -18 -1 -55 -4 -81 -6 -33 -3 -45 -1 -38 6 8 8 4 19 -11 36 -13
14 -16 20 -8 14 18 -17 38 -17 22 -1 -18 18 -14 32 5 17 15 -12 16 -12 10 5
-6 14 -4 16 5 9 20 -16 50 -12 43 5 -5 13 -3 13 11 1 9 -7 28 -15 43 -17z
m2935 7 c-3 -5 -11 -6 -17 -3 -7 4 -9 4 -5 0 3 -4 10 -8 15 -8 13 0 33 -19 33
-32 0 -6 -5 -4 -10 4 -8 12 -10 13 -10 1 0 -11 -6 -9 -22 6 -16 14 -34 20 -57
18 -20 -2 -28 0 -21 5 10 6 8 9 -6 13 -10 3 9 5 43 5 35 -1 60 -5 57 -9z m-39
-29 c-3 -5 -2 -10 4 -10 6 0 18 -11 27 -26 13 -19 14 -28 6 -36 -24 -24 -101
-11 -86 14 4 7 3 8 -4 4 -6 -3 -16 2 -22 13 -12 23 -4 30 44 42 17 4 32 7 34
8 2 1 0 -3 -3 -9z m-3018 -36 c-3 -3 -12 -4 -19 -1 -8 3 -5 6 6 6 11 1 17 -2
13 -5z m-39 -39 c-6 -14 -13 -23 -15 -21 -5 5 15 46 22 46 3 0 -1 -11 -7 -25z
m242 -52 c0 -26 -18 -39 -33 -24 -6 6 -21 11 -32 11 -12 0 -30 9 -40 20 -17
19 -17 21 -1 39 28 30 68 31 88 1 10 -14 18 -35 18 -47z m2513 70 c-7 -2 -19
-2 -25 0 -7 3 -2 5 12 5 14 0 19 -2 13 -5z m-100 -10 c-7 -2 -21 -2 -30 0 -10
3 -4 5 12 5 17 0 24 -2 18 -5z m117 -13 c-49 -12 -293 -29 -490 -34 -151 -5
-145 -4 68 9 128 8 272 18 320 23 114 12 148 13 102 2z m380 -10 c0 -5 -5 -10
-11 -10 -5 0 -7 5 -4 10 3 6 8 10 11 10 2 0 4 -4 4 -10z m-2893 -22 c-3 -8 -6
-5 -6 6 -1 11 2 17 5 13 3 -3 4 -12 1 -19z m1862 18 c-2 -2 -60 -6 -129 -9
-69 -3 -107 -2 -85 3 41 7 222 13 214 6z m911 -6 c0 -5 -7 -7 -15 -4 -8 4 -15
8 -15 10 0 2 7 4 15 4 8 0 15 -4 15 -10z m-1275 -9 c-9 -9 -223 -17 -250 -10
-5 2 49 6 120 9 72 3 132 7 135 8 2 1 0 -2 -5 -7z m-297 -18 c-10 -2 -28 -2
-40 0 -13 2 -5 4 17 4 22 1 32 -1 23 -4z m600 0 c-26 -2 -71 -2 -100 0 -29 2
-8 3 47 3 55 0 79 -1 53 -3z m-1305 -10 c-7 -2 -21 -2 -30 0 -10 3 -4 5 12 5
17 0 24 -2 18 -5z m70 0 c-7 -2 -19 -2 -25 0 -7 3 -2 5 12 5 14 0 19 -2 13 -5z
m795 -10 c-21 -2 -55 -2 -75 0 -21 2 -4 4 37 4 41 0 58 -2 38 -4z m-190 -10
c-21 -2 -57 -2 -80 0 -24 2 -7 4 37 4 44 0 63 -2 43 -4z m-355 -10 c-13 -2
-33 -2 -45 0 -13 2 -3 4 22 4 25 0 35 -2 23 -4z m130 0 c-18 -2 -48 -2 -65 0
-18 2 -4 4 32 4 36 0 50 -2 33 -4z m-846 -9 c-3 -3 -12 -4 -19 -1 -8 3 -5 6 6
6 11 1 17 -2 13 -5z m191 -1 c-21 -2 -55 -2 -75 0 -21 2 -4 4 37 4 41 0 58 -2
38 -4z m170 0 c-16 -2 -40 -2 -55 0 -16 2 -3 4 27 4 30 0 43 -2 28 -4z m1289
-209 c-3 -3 -12 -4 -19 -1 -8 3 -5 6 6 6 11 1 17 -2 13 -5z m-452 -24 c3 -5 2
-10 -4 -10 -5 0 -13 5 -16 10 -3 6 -2 10 4 10 5 0 13 -4 16 -10z m213 -46 c6
3 13 2 16 -2 3 -5 -4 -9 -16 -8 -12 0 -23 8 -25 16 -4 12 -3 13 5 1 5 -7 14
-11 20 -7z m-595 -1 c-7 -2 -19 -2 -25 0 -7 3 -2 5 12 5 14 0 19 -2 13 -5z
m380 -70 c3 -5 -6 -8 -19 -8 -13 0 -24 3 -24 8 0 4 9 7 19 7 11 0 22 -3 24 -7z
m457 -3 c8 -5 11 -10 5 -10 -5 0 -17 5 -25 10 -8 5 -10 10 -5 10 6 0 17 -5 25
-10z m-260 -40 c13 -8 13 -10 -2 -10 -9 0 -20 5 -23 10 -8 13 5 13 25 0z m34
-19 c3 -5 -1 -11 -9 -14 -9 -4 -12 -1 -8 9 6 16 10 17 17 5z m-884 -41 c0 -5
-2 -10 -4 -10 -3 0 -8 5 -11 10 -3 6 -1 10 4 10 6 0 11 -4 11 -10z m427 4 c-3
-3 -12 -4 -19 -1 -8 3 -5 6 6 6 11 1 17 -2 13 -5z m214 -30 c8 -10 3 -10 -20
2 -17 9 -31 17 -31 19 0 8 40 -9 51 -21z m444 16 c3 -5 -1 -10 -9 -10 -9 0
-16 5 -16 10 0 6 4 10 9 10 6 0 13 -4 16 -10z m-265 -50 c0 -5 -2 -10 -4 -10
-3 0 -8 5 -11 10 -3 6 -1 10 4 10 6 0 11 -4 11 -10z m40 -21 c0 -5 -8 -9 -17
-8 -12 0 -13 2 -5 6 10 4 10 8 0 21 -12 15 -11 16 5 3 9 -7 17 -17 17 -22z
m-450 -19 c0 -5 -4 -10 -10 -10 -5 0 -10 5 -10 10 0 6 5 10 10 10 6 0 10 -4
10 -10z m208 -22 c17 -17 15 -28 -5 -28 -14 0 -15 2 -4 9 9 6 10 11 2 15 -6 4
-15 5 -20 1 -5 -3 -12 -1 -16 5 -9 14 28 13 43 -2z m432 -4 c0 -8 -5 -12 -10
-9 -6 4 -8 11 -5 16 9 14 15 11 15 -7z m-221 -48 c9 -11 9 -16 0 -22 -8 -5 -9
-3 -4 6 6 10 4 12 -8 7 -9 -3 -18 0 -21 9 -7 18 18 18 33 0z m-229 -70 c9 -12
8 -15 -7 -13 -11 0 -25 7 -32 14 -9 10 -8 13 7 13 11 0 25 -6 32 -14z m210
-56 c0 -5 -4 -10 -9 -10 -6 0 -13 5 -16 10 -3 6 1 10 9 10 9 0 16 -4 16 -10z
m-1480 -880 c0 -5 -9 -10 -19 -10 -11 0 -23 5 -26 10 -4 6 5 10 19 10 14 0 26
-4 26 -10z m2054 -46 c12 -5 16 -21 16 -65 0 -55 -10 -74 -26 -48 -6 10 -25 8
-71 -7 -15 -5 -16 -4 -3 6 12 10 11 11 -8 7 -15 -4 -25 0 -29 9 -11 30 7 59
49 81 50 25 51 25 72 17z m-2054 -54 c8 -5 12 -12 9 -15 -8 -8 -39 5 -39 16 0
11 11 11 30 -1z m3130 -90 c0 -5 -2 -10 -4 -10 -3 0 -8 5 -11 10 -3 6 -1 10 4
10 6 0 11 -4 11 -10z m-30 -20 c0 -5 -5 -10 -11 -10 -5 0 -7 5 -4 10 3 6 8 10
11 10 2 0 4 -4 4 -10z m60 -25 c0 -2 -10 -9 -22 -15 -22 -11 -22 -10 -4 4 21
17 26 19 26 11z m-3540 -177 c47 5 75 -13 78 -49 3 -41 7 -45 27 -29 14 12 16
10 10 -16 -7 -32 -21 -74 -40 -119 -6 -16 -18 -45 -25 -62 -10 -26 -18 -33
-39 -33 -14 0 -64 -3 -110 -7 l-83 -6 7 24 c4 13 27 83 52 154 43 126 64 162
87 148 6 -4 22 -6 36 -5z m673 -25 c21 -3 36 -8 35 -12 -2 -3 -10 -19 -17 -36
-72 -164 -66 -157 -159 -170 -46 -6 -53 -10 -58 -33 -3 -15 -7 -32 -9 -39 -4
-13 -52 -29 -61 -20 -11 11 126 262 167 306 15 16 28 21 43 16 11 -3 38 -9 59
-12z m-742 -385 c0 -10 2 -10 6 0 2 6 20 12 39 12 l34 0 -22 -44 c-29 -60 -68
-71 -68 -19 0 13 -4 23 -10 23 -5 0 -10 9 -10 20 0 21 29 29 31 8z m-271 -333
c-22 -86 -39 -159 -36 -163 3 -4 -4 -8 -14 -9 -11 -1 -17 4 -15 10 5 16 81
284 90 322 6 20 9 25 12 13 2 -9 -14 -87 -37 -173z m-145 -14 c-17 -74 -32
-98 -21 -33 9 53 27 115 32 109 3 -2 -2 -37 -11 -76z"/>
<path d="M16418 7133 c7 -3 16 -2 19 1 4 3 -2 6 -13 5 -11 0 -14 -3 -6 -6z"/>
<path d="M16268 6103 c6 -2 18 -2 25 0 6 3 1 5 -13 5 -14 0 -19 -2 -12 -5z"/>
<path d="M16348 6093 c6 -2 18 -2 25 0 6 3 1 5 -13 5 -14 0 -19 -2 -12 -5z"/>
<path d="M15612 4800 c0 -14 2 -19 5 -12 2 6 2 18 0 25 -3 6 -5 1 -5 -13z"/>
<path d="M15605 4619 c-4 -6 -5 -12 -2 -15 2 -3 7 2 10 11 7 17 1 20 -8 4z"/>
<path d="M15604 4578 c6 -41 37 -45 35 -5 -1 20 -2 20 -9 -3 -5 -16 -8 -19 -9
-8 -1 9 -5 19 -10 22 -5 4 -8 0 -7 -6z"/>
<path d="M15642 4455 c0 -16 2 -22 5 -12 2 9 2 23 0 30 -3 6 -5 -1 -5 -18z"/>
<path d="M15652 4375 c0 -16 2 -22 5 -12 2 9 2 23 0 30 -3 6 -5 -1 -5 -18z"/>
<path d="M15661 4274 c0 -11 3 -14 6 -6 3 7 2 16 -1 19 -3 4 -6 -2 -5 -13z"/>
<path d="M15195 4360 c-8 -13 4 -32 16 -25 12 8 12 35 0 35 -6 0 -13 -4 -16
-10z"/>
<path d="M15232 4135 c0 -16 2 -22 5 -12 2 9 2 23 0 30 -3 6 -5 -1 -5 -18z"/>
<path d="M15212 4100 c0 -14 2 -19 5 -12 2 6 2 18 0 25 -3 6 -5 1 -5 -13z"/>
<path d="M15276 3952 c-2 -4 -1 -14 4 -22 7 -11 9 -9 7 8 -1 24 -3 26 -11 14z"/>
<path d="M16531 4104 c0 -11 3 -14 6 -6 3 7 2 16 -1 19 -3 4 -6 -2 -5 -13z"/>
<path d="M16533 4005 c0 -22 2 -30 4 -17 2 12 2 30 0 40 -3 9 -5 -1 -4 -23z"/>
<path d="M16091 3931 c-10 -7 -11 -12 -1 -27 8 -14 10 -14 7 -3 -3 9 0 22 6
28 13 13 7 14 -12 2z"/>
<path d="M16092 3868 c-7 -7 -12 -16 -12 -21 0 -5 7 -1 16 8 9 9 14 18 12 20
-2 3 -10 -1 -16 -7z"/>
<path d="M16698 3873 c7 -3 16 -2 19 1 4 3 -2 6 -13 5 -11 0 -14 -3 -6 -6z"/>
<path d="M16323 3863 c9 -2 25 -2 35 0 9 3 1 5 -18 5 -19 0 -27 -2 -17 -5z"/>
<path d="M16110 3850 c-8 -5 -10 -10 -5 -10 6 0 17 5 25 10 8 5 11 10 5 10 -5
0 -17 -5 -25 -10z"/>
<path d="M16315 3840 c3 -5 8 -10 11 -10 2 0 4 5 4 10 0 6 -5 10 -11 10 -5 0
-7 -4 -4 -10z"/>
<path d="M14958 3818 c17 -8 26 -8 34 0 9 9 4 12 -22 11 -33 0 -34 -1 -12 -11z"/>
<path d="M16448 3813 c7 -3 16 -2 19 1 4 3 -2 6 -13 5 -11 0 -14 -3 -6 -6z"/>
<path d="M16488 3813 c6 -2 18 -2 25 0 6 3 1 5 -13 5 -14 0 -19 -2 -12 -5z"/>
<path d="M14950 3800 c0 -11 39 -20 45 -10 3 4 -6 10 -20 12 -14 3 -25 2 -25
-2z"/>
<path d="M17358 3793 c6 -2 18 -2 25 0 6 3 1 5 -13 5 -14 0 -19 -2 -12 -5z"/>
<path d="M15811 10224 c0 -11 3 -14 6 -6 3 7 2 16 -1 19 -3 4 -6 -2 -5 -13z"/>
<path d="M15884 10209 c3 -17 6 -39 6 -49 0 -9 11 -29 24 -43 31 -33 40 -77
16 -77 -44 0 -47 -235 -5 -335 8 -21 15 -52 15 -71 0 -18 4 -35 9 -38 5 -4 9
-54 9 -114 1 -116 16 -230 33 -247 8 -7 10 12 5 70 -4 52 -3 75 3 66 8 -13 12
-13 27 0 13 11 18 11 21 2 7 -20 74 -15 111 7 30 18 32 22 20 43 -10 19 -13
20 -16 5 -4 -21 -17 -22 -57 -3 -20 9 -24 14 -12 14 21 1 23 39 2 47 -25 10
-17 34 10 34 14 0 25 4 25 9 0 5 -11 18 -25 29 -25 20 -33 42 -16 42 17 0 71
61 71 80 0 11 7 17 17 16 21 -1 45 55 26 61 -16 6 -17 83 -2 83 6 0 9 12 7 27
-2 19 -10 29 -27 33 -19 4 -24 13 -26 46 -3 45 -24 93 -50 114 -14 12 -14 15
6 37 13 12 27 23 33 23 6 0 17 9 24 20 7 12 8 20 2 20 -5 0 -10 4 -10 9 0 5
18 11 41 15 34 6 40 10 37 29 -3 22 -5 22 -182 25 l-179 2 7 -31z"/>
<path d="M15812 9705 c0 -16 2 -22 5 -12 2 9 2 23 0 30 -3 6 -5 -1 -5 -18z"/>
<path d="M16160 9535 c0 -8 5 -15 10 -15 6 0 10 7 10 15 0 8 -4 15 -10 15 -5
0 -10 -7 -10 -15z"/>
<path d="M16503 9526 c-14 -16 -7 -26 18 -26 10 0 21 -9 24 -20 3 -11 15 -20
25 -20 10 0 20 -6 23 -12 2 -7 7 -10 11 -7 3 3 -5 18 -19 33 -14 15 -25 30
-25 33 0 6 -32 32 -40 32 -3 0 -10 -6 -17 -13z"/>
<path d="M16449 9439 c-20 -4 -17 -7 21 -17 43 -11 70 -4 70 19 0 8 -52 8 -91
-2z"/>
<path d="M16698 9326 c4 -40 6 -43 33 -44 34 -1 36 7 9 41 -11 14 -20 30 -20
36 0 6 -6 11 -13 11 -8 0 -11 -13 -9 -44z"/>
<path d="M16160 9345 c0 -11 -11 -15 -40 -15 -36 0 -40 -2 -40 -25 0 -20 5
-25 25 -25 23 0 25 -4 25 -40 0 -22 -4 -40 -10 -40 -5 0 -10 -22 -10 -49 0
-41 4 -53 25 -69 14 -11 25 -25 25 -31 0 -6 6 -11 14 -11 11 0 16 22 21 85 5
52 13 89 21 96 8 6 14 18 14 25 0 20 -40 17 -57 -3 -12 -17 -13 -16 -11 7 3
21 9 26 38 28 36 3 70 35 50 47 -6 3 -10 -1 -10 -9 0 -9 -6 -16 -14 -16 -19 0
-46 27 -46 46 0 8 -4 14 -10 14 -5 0 -10 -7 -10 -15z"/>
<path d="M16780 9251 c0 -6 5 -13 10 -16 6 -3 10 1 10 9 0 9 -4 16 -10 16 -5
0 -10 -4 -10 -9z"/>
<path d="M15916 9039 c3 -79 12 -218 20 -309 8 -91 19 -226 25 -300 5 -74 14
-169 19 -210 8 -73 8 -72 4 25 -2 55 -6 155 -9 223 -3 68 -7 135 -10 150 -5
25 -5 25 4 5 10 -21 22 -110 36 -246 4 -42 2 -56 -6 -52 -12 8 -7 -78 16 -260
35 -270 47 -389 43 -417 -4 -28 -4 -29 8 -13 8 11 11 34 9 59 -29 270 -37 344
-46 421 -6 50 -13 160 -15 245 -3 151 -15 284 -35 385 -14 72 -40 304 -39 346
0 20 -6 49 -14 64 -13 26 -14 15 -10 -116z"/>
<path d="M16056 9144 c-18 -18 -18 -19 -2 -22 22 -5 29 2 24 24 -3 16 -4 16
-22 -2z"/>
<path d="M16092 8998 c-7 -7 -12 -25 -12 -42 0 -28 1 -28 18 -13 10 10 24 17
30 17 15 0 15 6 2 31 -12 22 -21 24 -38 7z"/>
<path d="M17093 9002 c-10 -6 -10 -12 2 -28 13 -16 16 -17 26 -4 8 11 12 12
16 3 2 -7 12 -13 20 -13 13 0 13 3 3 15 -7 8 -19 15 -26 15 -8 0 -14 5 -14 10
0 12 -10 13 -27 2z"/>
<path d="M17125 8890 c-3 -5 -2 -10 4 -10 5 0 18 -3 28 -7 17 -6 17 -6 1 10
-19 20 -24 21 -33 7z"/>
<path d="M16022 8864 c9 -9 21 -13 27 -10 20 13 11 26 -16 26 -25 0 -26 -1
-11 -16z"/>
<path d="M16022 8280 c0 -19 2 -27 5 -17 2 9 2 25 0 35 -3 9 -5 1 -5 -18z"/>
<path d="M16032 8200 c0 -19 2 -27 5 -17 2 9 2 25 0 35 -3 9 -5 1 -5 -18z"/>
<path d="M17075 8170 c-3 -5 1 -10 10 -10 9 0 13 5 10 10 -3 6 -8 10 -10 10
-2 0 -7 -4 -10 -10z"/>
<path d="M16041 8144 c0 -11 3 -14 6 -6 3 7 2 16 -1 19 -3 4 -6 -2 -5 -13z"/>
<path d="M15992 8100 c0 -14 2 -19 5 -12 2 6 2 18 0 25 -3 6 -5 1 -5 -13z"/>
<path d="M16045 8075 c17 -166 29 -255 32 -251 7 6 -18 248 -28 271 -6 14 -7
8 -4 -20z"/>
<path d="M17098 8073 c7 -3 16 -2 19 1 4 3 -2 6 -13 5 -11 0 -14 -3 -6 -6z"/>
<path d="M16003 8015 c0 -22 2 -30 4 -17 2 12 2 30 0 40 -3 9 -5 -1 -4 -23z"/>
<path d="M17340 7976 c0 -2 7 -7 16 -10 8 -3 12 -2 9 4 -6 10 -25 14 -25 6z"/>
<path d="M16013 7935 c0 -22 2 -30 4 -17 2 12 2 30 0 40 -3 9 -5 -1 -4 -23z"/>
<path d="M16022 7850 c0 -19 2 -27 5 -17 2 9 2 25 0 35 -3 9 -5 1 -5 -18z"/>
<path d="M16870 7860 c-18 -12 -2 -12 25 0 13 6 15 9 5 9 -8 0 -22 -4 -30 -9z"/>
<path d="M16800 7840 c-18 -12 -2 -12 25 0 13 6 15 9 5 9 -8 0 -22 -4 -30 -9z"/>
<path d="M16033 7775 c0 -22 2 -30 4 -17 2 12 2 30 0 40 -3 9 -5 -1 -4 -23z"/>
<path d="M16083 7755 c0 -33 2 -45 4 -27 2 18 2 45 0 60 -2 15 -4 0 -4 -33z"/>
<path d="M16076 7625 c-3 -8 -1 -15 4 -15 6 0 10 7 10 15 0 8 -2 15 -4 15 -2
0 -6 -7 -10 -15z"/>
<path d="M16709 724 c-52 -47 -132 -125 -178 -172 -246 -253 -250 -261 -16
-32 143 139 269 262 280 272 11 10 17 18 14 18 -4 0 -48 -39 -100 -86z"/>
<path d="M23313 328 c-8 -11 -9 -44 -4 -190 1 -17 18 -18 206 -18 l206 0 -3
108 -3 107 -196 3 c-150 2 -198 -1 -206 -10z m99 -53 c-4 -33 -3 -35 26 -35
30 0 42 14 42 51 0 11 7 19 16 19 14 0 15 -7 10 -37 -4 -21 -10 -57 -13 -80
-4 -33 -10 -43 -24 -43 -15 0 -16 5 -9 31 7 22 5 31 -5 35 -28 11 -49 -2 -59
-34 -5 -17 -15 -32 -22 -32 -8 0 -14 1 -14 3 0 9 22 124 26 140 10 33 30 19
26 -18z m244 27 c28 -18 35 -51 19 -88 -20 -50 -41 -63 -96 -64 l-46 0 8 43
c4 23 8 45 9 50 0 4 7 7 15 7 12 0 14 -8 9 -40 -6 -38 -5 -40 18 -40 36 0 60
31 56 72 -3 31 -5 33 -45 36 -29 2 -43 8 -43 18 0 10 12 14 43 14 23 0 47 -4
53 -8z"/>
<path d="M22720 240 l0 -90 55 0 c47 0 57 3 71 25 15 22 15 27 1 48 -10 15
-12 29 -6 39 21 37 -19 68 -87 68 l-34 0 0 -90z m85 35 c0 -14 -8 -21 -27 -23
-24 -3 -28 0 -28 23 0 23 4 26 28 23 19 -2 27 -9 27 -23z m15 -75 c0 -19 -19
-30 -51 -30 -13 0 -19 7 -19 23 0 31 4 34 40 29 20 -3 30 -10 30 -22z"/>
<path d="M23790 313 c0 -4 11 -44 25 -90 16 -52 31 -83 39 -83 9 0 22 25 33
63 l20 62 18 -62 c26 -92 38 -86 79 41 20 61 20 76 2 76 -9 0 -19 -20 -26 -52
-18 -77 -22 -78 -40 -13 -10 38 -23 61 -32 63 -17 3 -18 0 -39 -78 -13 -50
-18 -45 -39 38 -7 25 -17 42 -25 42 -8 0 -15 -3 -15 -7z"/>
<path d="M24190 230 c0 -73 3 -90 15 -90 12 0 15 17 15 90 0 73 -3 90 -15 90
-12 0 -15 -17 -15 -90z"/>
<path d="M24270 230 c0 -73 3 -90 15 -90 12 0 15 17 15 90 0 73 -3 90 -15 90
-12 0 -15 -17 -15 -90z"/>
<path d="M23150 291 c0 -11 -6 -22 -12 -25 -10 -5 -10 -7 0 -12 7 -3 12 -24
12 -49 0 -45 17 -65 54 -65 23 0 20 27 -4 33 -15 4 -20 14 -20 41 0 25 4 36
15 36 8 0 15 5 15 10 0 6 -7 10 -15 10 -8 0 -15 9 -15 20 0 11 -7 20 -15 20
-8 0 -15 -9 -15 -19z"/>
<path d="M22902 264 c-33 -23 -28 -92 9 -113 30 -17 79 -8 79 14 0 11 -8 13
-28 9 -19 -4 -32 -1 -41 10 -12 14 -8 16 33 16 25 0 46 4 46 10 0 23 -24 59
-44 64 -29 8 -29 8 -54 -10z m56 -32 c2 -7 -7 -12 -22 -12 -27 0 -35 15 -13
23 17 7 30 3 35 -11z"/>
<path d="M23036 267 c-25 -18 -17 -49 17 -65 35 -17 35 -34 0 -30 -34 4 -42
-19 -10 -27 62 -16 94 51 37 75 -36 15 -40 34 -5 28 22 -5 44 7 33 17 -12 12
-56 14 -72 2z"/>
<path d="M24067 263 c-16 -15 -6 -30 17 -26 13 3 27 0 30 -6 5 -7 -2 -11 -18
-11 -32 0 -59 -36 -45 -61 7 -14 20 -18 54 -17 l45 2 0 53 c0 41 -4 54 -19 63
-22 11 -54 13 -64 3z m53 -77 c0 -19 -17 -29 -37 -22 -12 5 -13 9 -3 21 16 19
40 19 40 1z"/>
<path d="M24340 173 c0 -76 3 -93 15 -93 10 0 15 10 15 30 0 26 4 30 28 30 36
0 62 28 62 67 0 40 -23 58 -77 58 l-43 0 0 -92z m78 55 c16 -16 15 -33 -3 -52
-22 -21 -45 -9 -45 23 0 41 22 55 48 29z"/>
<path d="M24503 264 c-17 -7 -4 -34 13 -27 8 3 22 2 32 -2 13 -5 10 -9 -18
-18 -30 -10 -35 -17 -35 -42 0 -29 2 -30 48 -31 l47 -1 0 53 c0 42 -4 55 -19
64 -20 10 -47 12 -68 4z m57 -78 c0 -19 -17 -29 -37 -22 -12 5 -13 9 -3 21 16
19 40 19 40 1z"/>
<path d="M24630 173 c0 -76 3 -93 15 -93 10 0 15 10 15 30 0 26 4 30 28 30 54
0 80 60 46 108 -12 18 -23 22 -60 20 l-44 -3 0 -92z m78 55 c16 -16 15 -33 -3
-52 -22 -21 -45 -9 -45 23 0 41 22 55 48 29z"/>
<path d="M24790 250 c-24 -24 -26 -57 -4 -88 13 -19 24 -22 57 -20 23 2 42 9
45 17 3 10 -2 12 -24 8 -31 -6 -54 0 -54 14 0 5 18 9 40 9 36 0 40 3 40 24 0
52 -62 74 -100 36z m63 -24 c1 -5 -8 -11 -20 -12 -23 -4 -30 6 -16 20 9 9 33
4 36 -8z"/>
<path d="M24920 205 c0 -51 3 -65 15 -65 11 0 15 11 15 40 0 33 4 42 25 52 14
6 25 14 25 18 0 15 -14 19 -33 8 -16 -8 -22 -8 -25 1 -10 31 -22 4 -22 -54z"/>
<path d="M25092 254 c-33 -23 -31 -88 3 -110 18 -12 33 -14 52 -8 27 8 27 8
-10 12 -47 4 -67 37 -49 77 9 20 19 25 49 25 28 0 34 3 23 10 -22 14 -42 12
-68 -6z"/>
<path d="M25213 244 c-20 -20 -24 -31 -19 -57 11 -56 59 -74 96 -37 28 28 27
84 -2 104 -31 22 -45 20 -75 -10z m77 -19 c14 -36 -3 -75 -33 -75 -30 0 -47
18 -47 50 0 52 62 72 80 25z"/>
<path d="M25381 261 c-8 -5 -20 -7 -28 -4 -10 4 -13 -9 -13 -56 0 -34 4 -61
10 -61 6 0 10 19 10 43 0 46 13 67 42 67 18 0 25 -17 31 -80 3 -30 4 -28 5 11
2 48 15 69 44 69 19 0 22 -14 20 -77 -1 -18 3 -33 8 -33 6 0 10 24 10 54 0 66
-17 85 -57 67 -18 -8 -29 -9 -37 -1 -12 12 -26 13 -45 1z"/>
<path d="M16230 240 c-35 -37 -41 -53 -10 -23 19 18 32 34 29 36 -2 2 -11 -4
-19 -13z"/>
<path d="M16139 143 l-34 -38 38 34 c34 33 42 41 34 41 -2 0 -19 -17 -38 -37z"/>
<path d="M25020 150 c0 -5 5 -10 10 -10 6 0 10 5 10 10 0 6 -4 10 -10 10 -5 0
-10 -4 -10 -10z"/>
</g>
</svg>
